HIERARCHY
ROOT Hips
{
	OFFSET 0.000000 0.000000 0.000000 
	CHANNELS 6 Xposition Yposition Zposition Zrotation Yrotation Xrotation
	JOINT LeftUpLeg
	{
		OFFSET 1.363060 -1.794630 0.839290 
		CHANNELS 3 Zrotation Yrotation Xrotation
		JOINT LeftLeg
		{
			OFFSET 2.448110 -6.726130 0.000000 
			CHANNELS 3 Zrotation Yrotation Xrotation
			JOINT LeftFoot
			{
				OFFSET 2.562200 -7.039590 0.000000 
				CHANNELS 3 Zrotation Yrotation Xrotation
				JOINT LeftToeBase
				{
					OFFSET 0.157640 -0.433110 2.322550 
					CHANNELS 3 Zrotation Yrotation Xrotation
					End Site
					{
						OFFSET 0.000000 0.000000 0.000000 
					}
				}
			}
		}
	}
	JOINT RightUpLeg
	{
		OFFSET -1.305520 -1.794630 0.839290 
		CHANNELS 3 Zrotation Yrotation Xrotation
		JOINT RightLeg
		{
			OFFSET -2.542530 -6.985550 0.000000 
			CHANNELS 3 Zrotation Yrotation Xrotation
			JOINT RightFoot
			{
				OFFSET -2.568260 -7.056230 0.000000 
				CHANNELS 3 Zrotation Yrotation Xrotation
				JOINT RightToeBase
				{
					OFFSET -0.164730 -0.452590 2.363150 
					CHANNELS 3 Zrotation Yrotation Xrotation
					End Site
					{
						OFFSET 0.000000 0.000000 0.000000 
					}
				}
			}
		}
	}
	JOINT Spine
	{
		OFFSET 0.028270 2.035590 -0.193380 
		CHANNELS 3 Zrotation Yrotation Xrotation
		JOINT Spine1
		{
			OFFSET 0.056720 2.048850 -0.042750 
			CHANNELS 3 Zrotation Yrotation Xrotation
			JOINT Neck1
			{
				OFFSET -0.054170 1.746240 0.172020 
				CHANNELS 3 Zrotation Yrotation Xrotation
				JOINT Head
				{
					OFFSET 0.104070 1.761360 -0.123970 
					CHANNELS 3 Zrotation Yrotation Xrotation
					End Site
					{
						OFFSET 0.000000 0.000000 0.000000 
					}
				}
			}
			JOINT LeftArm
			{
				OFFSET 3.362410 1.200890 -0.311210 
				CHANNELS 3 Zrotation Yrotation Xrotation
				JOINT LeftForeArm
				{
					OFFSET 4.983000 -0.000000 -0.000000 
					CHANNELS 3 Zrotation Yrotation Xrotation
					JOINT LeftHand
					{
						OFFSET 3.483560 -0.000000 -0.000000 
						CHANNELS 3 Zrotation Yrotation Xrotation
						JOINT LeftHandIndex1
						{
							OFFSET 0.715260 -0.000000 -0.000000 
							CHANNELS 3 Zrotation Yrotation Xrotation
							End Site
							{
								OFFSET 0.000000 0.000000 0.000000 
							}
						}
					}
				}
			}
			JOINT RightArm
			{
				OFFSET -3.136600 1.374050 -0.404650 
				CHANNELS 3 Zrotation Yrotation Xrotation
				JOINT RightForeArm
				{
					OFFSET -5.241900 -0.000000 -0.000000 
					CHANNELS 3 Zrotation Yrotation Xrotation
					JOINT RightHand
					{
						OFFSET -3.444170 -0.000000 -0.000000 
						CHANNELS 3 Zrotation Yrotation Xrotation
						JOINT RightHandIndex1
						{
							OFFSET -0.622530 -0.000000 -0.000000 
							CHANNELS 3 Zrotation Yrotation Xrotation
							End Site
							{
								OFFSET 0.000000 0.000000 0.000000 
							}
						}
					}
				}
			}
		}
	}
}
MOTION
Frames: 9
Frame Time: 0.041667
10.799733 17.774500 10.411294 -177.548232 -5.328956 -167.550795 -14.203608 -3.485579 -7.176326 1.162183 5.765967 16.509373 0.807114 -5.288142 -13.015753 0.397400 -4.047600 -11.210500 22.835261 5.746487 -20.667860 -4.415721 -11.219396 33.953859 -0.223390 -3.555178 -15.722613 -0.319600 3.634100 -10.049500 7.382499 0.412981 0.729568 11.314375 -0.313746 3.516881 7.696867 -5.305760 20.010589 3.969300 -3.004900 13.096900 -98.034843 2.329161 38.576499 20.395087 -30.917674 -5.700413 1.032031 -0.801269 0.569783 -7.125000 0.000000 0.000000 82.865092 5.040878 15.152959 -16.794485 27.176257 -3.769105 0.440944 0.420165 -8.655461 7.125000 0.000000 0.000000 
10.820583 17.774403 10.400187 -177.364118 -5.693519 -167.540988 -13.886645 -3.741823 -7.153834 1.158309 5.766653 16.506444 0.802144 -5.111775 -13.056992 0.465200 -4.375000 -12.134200 23.159423 5.745042 -20.628665 -4.415268 -11.217983 33.953451 -0.219112 -3.668135 -15.946467 -0.266000 3.318000 -9.165300 7.461273 0.346461 0.506106 11.229945 -0.316771 3.289063 7.760844 -5.225578 20.067896 4.041700 -3.005100 13.012400 -98.212044 2.618725 38.954171 20.322151 -30.828523 -5.682169 1.019844 -0.812812 0.290755 -7.125000 0.000000 0.000000 82.753344 4.576663 15.231325 -16.940740 27.377000 -3.851588 0.423517 0.415103 -8.818701 7.125000 0.000000 0.000000 
10.844647 17.766414 10.382943 -177.323246 -6.013485 -167.585947 -13.700013 -3.859439 -7.075100 1.158903 5.767924 16.510438 0.811713 -5.195298 -13.124853 0.461400 -4.357400 -12.084400 23.333291 5.798366 -20.434304 -4.410903 -11.220740 33.950707 -0.186311 -3.927506 -16.145797 -0.229400 3.082700 -8.509000 7.444599 0.313083 0.439463 11.178874 -0.325365 3.311978 7.676657 -5.198237 20.164810 3.994400 -2.998600 13.021300 -98.219350 2.577927 39.233069 20.290311 -30.784722 -5.662154 1.026684 -0.808959 0.516051 -7.125000 0.000000 0.000000 82.840135 4.383317 15.287865 -17.111430 27.615122 -3.938617 0.404991 0.425548 -9.069114 7.125000 0.000000 0.000000 
10.867542 17.756379 10.365698 -177.282496 -6.356578 -167.631807 -13.495168 -3.847171 -7.038925 1.161190 5.761978 16.494654 0.824551 -5.552715 -13.089852 0.402200 -4.071400 -11.277700 23.538297 5.733196 -20.291720 -4.398792 -11.214386 33.914014 -0.122302 -4.325319 -16.274241 -0.236900 3.132400 -8.647500 7.395548 0.328998 0.404910 11.080374 -0.309483 3.375355 7.456533 -5.303610 20.262135 3.843500 -3.039500 13.082400 -98.116761 2.519345 39.709593 20.360960 -30.875626 -5.701293 1.041110 -0.795769 0.714478 -7.125000 0.000000 0.000000 83.006322 4.290420 15.030999 -17.222675 27.774527 -3.967723 0.437410 0.424733 -9.057972 7.125000 0.000000 0.000000 
10.887515 17.757061 10.346505 -177.243825 -6.608408 -167.621481 -13.330509 -3.837876 -7.054421 1.161817 5.752315 16.467956 0.812386 -5.746288 -12.859980 0.405500 -4.088000 -11.324300 23.733464 5.336555 -20.358892 -4.381825 -11.190223 33.823086 -0.176665 -4.117985 -16.483872 -0.298700 3.514100 -9.713600 7.365738 0.358621 0.352700 10.998526 -0.285766 3.414448 7.282930 -5.422929 20.443059 3.731300 -3.093400 13.206200 -98.103193 2.472832 40.179733 20.426746 -30.958891 -5.738571 1.052732 -0.787820 0.983675 -7.125000 0.000000 0.000000 83.106236 4.340818 14.758829 -17.166131 27.693017 -3.910908 0.477025 0.418592 -8.910726 7.125000 0.000000 0.000000 
10.909630 17.762614 10.322051 -177.499249 -6.813626 -167.644147 -13.499107 -3.813492 -6.965278 1.162619 5.735217 16.428579 0.791339 -5.852787 -12.561863 0.482600 -4.454900 -12.360000 23.606346 4.776048 -20.346055 -4.357227 -11.161919 33.699065 -0.290075 -3.635284 -16.790161 -0.277100 3.385800 -9.354800 7.262039 0.302221 0.392827 11.033005 -0.324430 3.634520 7.314719 -5.458916 20.615112 3.710700 -3.081400 13.341700 -98.181507 2.231960 40.290461 20.198523 -30.682384 -5.622098 1.029247 -0.812112 1.005784 -7.125000 0.000000 0.000000 83.249175 4.630036 14.785664 -17.062587 27.550625 -3.860724 0.476602 0.425086 -8.840054 7.125000 0.000000 0.000000 
10.928239 17.763686 10.300812 -177.648500 -7.004106 -167.718534 -13.564699 -3.721174 -6.806419 1.155278 5.693687 16.316853 0.799456 -6.108874 -12.530966 0.477200 -4.430400 -12.290700 23.571238 4.407204 -20.200540 -4.331105 -11.138064 33.586917 -0.266849 -3.750460 -16.761278 -0.201100 2.887300 -7.965300 7.148536 0.197573 0.485554 10.923027 -0.393633 3.935802 7.389612 -5.387890 20.649425 3.718400 -3.011300 13.399600 -98.222907 1.968834 40.112129 20.114110 -30.585410 -5.582100 1.007077 -0.835807 1.497719 -7.125000 0.000000 0.000000 83.468519 4.986791 14.808268 -16.975706 27.462501 -3.842477 0.472518 0.414769 -8.755169 7.125000 0.000000 0.000000 
10.947432 17.766511 10.280158 -177.542625 -7.183246 -167.753224 -13.332036 -3.584967 -6.715530 1.139903 5.632065 16.137874 0.826241 -6.510325 -12.657903 0.394800 -4.034400 -11.173400 23.818162 4.065343 -20.164875 -4.314774 -11.119132 33.509611 -0.195223 -3.994994 -16.417754 -0.206600 2.926400 -8.073800 7.141539 0.134814 0.472043 10.803826 -0.427016 4.065416 7.428424 -5.354061 20.527052 3.743400 -2.991300 13.338400 -98.234984 1.949735 40.258854 20.146212 -30.632052 -5.611088 1.016539 -0.828263 1.611704 -7.125000 0.000000 0.000000 83.576891 5.069962 14.671605 -16.926592 27.424890 -3.841590 0.472695 0.392936 -8.410339 7.125000 0.000000 0.000000 
10.972958 17.763978 10.256873 -177.550881 -7.326091 -167.731359 -13.192707 -3.472238 -6.632608 1.122837 5.562577 15.936902 0.833099 -6.800241 -12.613280 0.384100 -3.980100 -11.020700 23.941604 3.856709 -20.137384 -4.309575 -11.111633 33.478998 -0.198626 -3.926125 -16.296359 -0.248600 3.208300 -8.859300 7.144161 0.132017 0.366146 10.882588 -0.422524 4.055983 7.591529 -5.435636 20.356313 3.818500 -3.025200 13.233100 -98.225222 2.054007 40.771078 20.111448 -30.579062 -5.587832 1.038760 -0.806500 1.223702 -7.125000 0.000000 0.000000 83.571060 4.761651 14.794471 -17.051626 27.602551 -3.910453 0.466463 0.387758 -8.193672 7.125000 0.000000 0.000000 
